<svg aria-hidden="true" style="position:absolute;width:0;height:0" xmlns="http://www.w3.org/2000/svg" overflow="hidden"><defs><symbol id="icon-instagram" viewBox="0 0 32 32"><path d="M31.969 9.408c-.075-1.7-.35-2.869-.744-3.882a7.806 7.806 0 00-1.851-2.838A7.867 7.867 0 0026.542.844C25.523.45 24.36.175 22.66.1 20.947.019 20.403 0 16.059 0s-4.888.019-6.595.094c-1.7.075-2.869.35-3.882.744a7.803 7.803 0 00-2.838 1.85A7.867 7.867 0 00.9 5.52C.506 6.539.231 7.702.156 9.402c-.081 1.713-.1 2.257-.1 6.601s.019 4.888.094 6.595c.075 1.7.35 2.869.744 3.882a7.895 7.895 0 001.85 2.838 7.867 7.867 0 002.832 1.844c1.019.394 2.182.669 3.882.744 1.706.075 2.25.094 6.595.094s4.888-.019 6.595-.094c1.7-.075 2.869-.35 3.882-.744a8.184 8.184 0 004.682-4.682c.394-1.019.669-2.182.744-3.882.075-1.707.094-2.251.094-6.595s-.006-4.888-.081-6.595zm-2.882 13.065c-.069 1.563-.331 2.407-.55 2.969a5.31 5.31 0 01-3.038 3.038c-.563.219-1.413.481-2.969.55-1.688.075-2.194.094-6.464.094s-4.782-.019-6.464-.094c-1.563-.069-2.407-.331-2.969-.55a4.926 4.926 0 01-1.838-1.194 4.974 4.974 0 01-1.194-1.838c-.219-.563-.481-1.413-.55-2.969-.075-1.688-.094-2.194-.094-6.464s.019-4.782.094-6.464c.069-1.563.331-2.407.55-2.969a4.868 4.868 0 011.2-1.838A4.974 4.974 0 016.639 3.55c.563-.219 1.413-.481 2.969-.55 1.688-.075 2.194-.094 6.464-.094 4.276 0 4.782.019 6.464.094 1.563.069 2.407.331 2.969.55a4.914 4.914 0 011.838 1.194 4.974 4.974 0 011.194 1.838c.219.563.481 1.413.55 2.969.075 1.688.094 2.194.094 6.464s-.019 4.77-.094 6.458z"/><path d="M16.059 7.783c-4.538 0-8.22 3.682-8.22 8.22s3.682 8.22 8.22 8.22c4.539 0 8.22-3.682 8.22-8.22s-3.682-8.22-8.22-8.22zm0 13.552a5.333 5.333 0 010-10.664 5.333 5.333 0 010 10.664zM26.524 7.458a1.919 1.919 0 11-3.838 0 1.919 1.919 0 013.838 0z"/></symbol><symbol id="icon-close" viewBox="0 0 32 32"><path d="M23.733 10.304L22.229 8.8l-5.963 5.963L10.303 8.8l-1.504 1.504 5.963 5.963-5.963 5.963 1.504 1.504 5.963-5.963 5.963 5.963 1.504-1.504-5.963-5.963 5.963-5.963z"/></symbol><symbol id="icon-linkedin" viewBox="0 0 32 32"><path d="M31.992 32v-.001H32V20.263c0-5.741-1.236-10.164-7.948-10.164-3.227 0-5.392 1.771-6.276 3.449h-.093v-2.913h-6.364v21.364h6.627V21.42c0-2.785.528-5.479 3.977-5.479 3.399 0 3.449 3.179 3.449 5.657v10.401h6.62zM.528 10.636h6.635V32H.528V10.636zM3.843 0C1.722 0 0 1.721 0 3.843s1.721 3.879 3.843 3.879c2.121 0 3.843-1.757 3.843-3.879A3.846 3.846 0 003.843 0z"/></symbol><symbol id="icon-facebook" viewBox="0 0 32 32"><path d="M21.329 5.313h2.921V.225C23.746.156 22.013 0 19.994 0c-4.212 0-7.097 2.649-7.097 7.519V12H8.249v5.688h4.648V32h5.699V17.689h4.46l.708-5.688h-5.169V8.082c.001-1.644.444-2.769 2.735-2.769z"/></symbol><symbol id="icon-twitter" viewBox="0 0 32 32"><path d="M32 6.078c-1.19.522-2.458.868-3.78 1.036a6.523 6.523 0 002.886-3.626 13.11 13.11 0 01-4.16 1.588A6.574 6.574 0 0022.154 3c-3.632 0-6.556 2.948-6.556 6.562 0 .52.044 1.02.152 1.496-5.454-.266-10.28-2.88-13.522-6.862a6.605 6.605 0 00-.898 3.316 6.57 6.57 0 002.914 5.452 6.479 6.479 0 01-2.964-.808v.072c0 3.188 2.274 5.836 5.256 6.446a6.548 6.548 0 01-1.72.216 5.8 5.8 0 01-1.242-.112c.85 2.598 3.262 4.508 6.13 4.57a13.182 13.182 0 01-8.134 2.798c-.538 0-1.054-.024-1.57-.09A18.469 18.469 0 0010.064 29c12.072 0 18.672-10 18.672-18.668 0-.29-.01-.57-.024-.848A13.087 13.087 0 0032 6.078z"/></symbol><symbol id="icon-instagram-2" viewBox="0 0 32 32"><path d="M27.406 6.72c-.053-1.214-.25-2.049-.531-2.773a5.57 5.57 0 00-1.322-2.027A5.627 5.627 0 0023.53.603c-.728-.281-1.558-.478-2.773-.531-1.224-.058-1.612-.071-4.715-.071s-3.492.013-4.711.067c-1.214.054-2.049.25-2.773.531a5.57 5.57 0 00-2.027 1.322 5.64 5.64 0 00-1.317 2.023c-.281.728-.478 1.558-.531 2.773-.058 1.224-.072 1.612-.072 4.715s.013 3.492.067 4.711c.054 1.214.25 2.049.531 2.773.29.768.741 1.456 1.322 2.027a5.627 5.627 0 002.023 1.317c.728.281 1.558.478 2.773.531 1.219.054 1.607.067 4.711.067s3.492-.013 4.711-.067c1.215-.053 2.049-.25 2.773-.531a5.847 5.847 0 003.345-3.344c.281-.728.478-1.558.531-2.773.053-1.219.067-1.608.067-4.711s-.005-3.492-.058-4.711zm-2.058 9.332c-.049 1.116-.237 1.719-.393 2.121a3.79 3.79 0 01-2.17 2.17c-.402.156-1.009.344-2.121.393-1.206.054-1.567.067-4.617.067s-3.416-.013-4.617-.067c-1.116-.049-1.719-.236-2.121-.393a3.507 3.507 0 01-1.313-.853 3.547 3.547 0 01-.853-1.313c-.156-.402-.344-1.009-.393-2.121-.054-1.206-.067-1.567-.067-4.617s.013-3.416.067-4.617c.049-1.116.237-1.719.393-2.121.183-.496.473-.947.857-1.313.37-.38.817-.67 1.313-.853.402-.156 1.009-.344 2.121-.393 1.206-.054 1.567-.067 4.617-.067 3.054 0 3.416.013 4.617.067 1.116.049 1.719.237 2.121.393.495.183.947.473 1.313.853.379.371.67.817.853 1.313.156.402.344 1.009.393 2.121.054 1.206.067 1.567.067 4.617s-.013 3.407-.067 4.613z"/><path d="M16.042 5.559c-3.242 0-5.872 2.63-5.872 5.872s2.63 5.872 5.872 5.872 5.872-2.63 5.872-5.872-2.63-5.872-5.872-5.872zm0 9.681a3.81 3.81 0 11.002-7.62 3.81 3.81 0 01-.002 7.62zM23.517 5.327a1.371 1.371 0 11-2.742 0 1.371 1.371 0 012.742 0z"/></symbol><symbol id="icon-map-pin" viewBox="0 0 32 32"><path fill="none" stroke="var(--color1, #9da4bd)" stroke-linejoin="round" stroke-linecap="round" stroke-width="1.333" d="M26.667 13.818C26.667 21.454 16 28 16 28S5.333 21.455 5.333 13.818C5.333 8.396 10.109 4 16 4s10.667 4.396 10.667 9.818v0z"/><path fill="none" stroke="var(--color1, #9da4bd)" stroke-linejoin="round" stroke-linecap="round" stroke-width="1.333" d="M16 18.667a4 4 0 100-8 4 4 0 000 8z"/></symbol><symbol id="icon-phone" viewBox="0 0 32 32"><path fill="none" stroke="var(--color1, #9da4bd)" stroke-linejoin="round" stroke-linecap="round" stroke-width="1.333" d="M26.666 21.337v3.218a2.146 2.146 0 01-2.338 2.145 21.239 21.239 0 01-9.257-3.293 20.914 20.914 0 01-6.436-6.436 21.221 21.221 0 01-3.293-9.3 2.144 2.144 0 012.134-2.338h3.218a2.144 2.144 0 012.145 1.845c.136 1.03.388 2.041.751 3.014a2.144 2.144 0 01-.483 2.263l-1.362 1.362a17.162 17.162 0 006.436 6.436l1.362-1.362a2.146 2.146 0 012.263-.483c.973.363 1.984.615 3.014.751a2.144 2.144 0 011.845 2.177z"/></symbol><symbol id="icon-mail" viewBox="0 0 32 32"><path fill="none" stroke="var(--color1, #9da4bd)" stroke-linejoin="round" stroke-linecap="round" stroke-width="1.333" d="M6.4 6.667h19.2c1.32 0 2.4 1.05 2.4 2.333v14c0 1.283-1.08 2.333-2.4 2.333H6.4C5.08 25.333 4 24.283 4 23V9c0-1.283 1.08-2.333 2.4-2.333z"/><path fill="none" stroke="var(--color1, #9da4bd)" stroke-linejoin="round" stroke-linecap="round" stroke-width="1.333" d="M26.667 9.333l-10.667 8-10.667-8"/></symbol><symbol id="icon-menu" viewBox="0 0 32 32"><path fill="var(--color2, #fff)" d="M6.4 11.734V9.6h19.2v2.134H6.4zm0 5.332h19.2v-2.133H6.4v2.133zm0 5.334h19.2v-2.134H6.4V22.4z"/></symbol><symbol id="icon-Logo" viewBox="0 0 39 32"><path fill="var(--color2, #fff)" d="M22.371 9.64l-.749-.571a.57.57 0 00-.8.079l-.001.001-10.36 11.897.16.177 2.566-2.366a.395.395 0 01.147-.76h.007c.174 0 .321.114.371.272l.001.003 3.383-3.137a.291.291 0 01.366 0h-.001l.171.126a.285.285 0 00.382-.046l4.423-4.96a.474.474 0 00-.067-.714l-.001-.001z"/><path fill="var(--color2, #fff)" d="M27.24 12.989a22.87 22.87 0 01-7.335 3.477l-.162.037c-2.401.638-5.193 1.072-8.063 1.208l-.092.003c.055.406.155.805.297 1.189 1.554 1.406 13.257-.994 15.543-3.771.486-.577-.189-2.143-.189-2.143zm-13.897 5.868a.389.389 0 11.389-.389v.006a.382.382 0 01-.382.382h-.007zM2.286 12.166l.091-.394 1.486.337c.123.226.198.475.223.731a2.43 2.43 0 01-.051.811 2.157 2.157 0 01-.493.997l.002-.002a1.97 1.97 0 01-.866.568l-.014.004a2.109 2.109 0 01-1.095.038l.014.003a2.001 2.001 0 01-.955-.504l.001.001a1.883 1.883 0 01-.54-.884l-.003-.013a2.15 2.15 0 01.004-1.158l-.004.015c.062-.28.171-.547.326-.789.147-.22.339-.399.563-.527l.008-.004.206.314a1.64 1.64 0 00-.753 1.099l-.002.01a1.792 1.792 0 00.02.91l-.003-.013c.077.278.229.529.44.726.217.21.488.354.783.417.286.08.589.08.874 0 .283-.095.524-.255.713-.462l.001-.001c.2-.23.337-.507.4-.806a1.755 1.755 0 00-.073-1.103l.004.012-1.309-.331zM5.52 8.571l-1.331 1.777.571 1.023-.263.354-2.114-3.857.246-.337 4.303.926-.269.354-1.143-.24zm-.377-.091l-2.286-.514L4 10.017 5.143 8.48zm0-3.594l.343-.257 2.177 2.914L9.457 6.2l.217.291-2.131 1.594-2.4-3.2zm3.6-2.383l.383-.171 1.509 3.303 2.04-.926.149.331-2.423 1.103-1.657-3.64zm7.531 1.314l.086.36-2.754.646-.914-3.897 2.674-.623.08.354-2.286.531.326 1.383 2.011-.474.086.354-2.017.469.343 1.446 2.366-.549zm3.926.143l-.954-1.257a2.847 2.847 0 01-.32 0l-1.074.034.04 1.269h-.423l-.131-4L18.858 0a1.8 1.8 0 011.217.329L20.07.325c.287.232.469.585.469.979v.016-.001c.017.282-.057.563-.211.8a1.34 1.34 0 01-.653.483l-.009.003 1 1.337-.463.017zm-.4-1.88a.909.909 0 00.291-.752v-.015a.92.92 0 00-.336-.711l-.002-.001a1.373 1.373 0 00-.902-.234h.005l-1.086.04.069 2 1.063-.034a1.36 1.36 0 00.9-.294l-.003.002zm3.423.817l-.206 1.366L22.6 4.2l.211-1.343L21.628 0l.446.069 1.011 2.434L24.799.486l.4.086-1.977 2.326zm5.651-.24l.497.646-.217.171-.497-.663-.314.749-.24-.103.32-.749-.823.109v-.274l.811-.091-.503-.646.223-.171.44.651.309-.754.246.103-.291.766.823-.114v.28l-.783.091zm1.909 4.606a1.565 1.565 0 01-.245-.684l-.001-.007.337-.149c.025.226.099.445.217.64.127.219.294.413.491.571.197.189.452.318.736.359l.007.001a.62.62 0 00.536-.221l.001-.001a.51.51 0 00.133-.345l-.002-.045v.002a1.037 1.037 0 00-.14-.399l.003.005a5.935 5.935 0 00-.359-.523l.01.014a4.995 4.995 0 01-.398-.603l-.013-.026a1.133 1.133 0 01-.149-.536v-.001a.84.84 0 01.223-.571c.123-.148.283-.261.467-.324l.007-.002a1.125 1.125 0 01.642.002l-.008-.002c.28.093.522.234.728.414l-.002-.002c.176.146.331.315.463.503.121.174.212.367.269.571l-.326.171a2.006 2.006 0 00-.256-.544l.005.007a2.068 2.068 0 00-.379-.391l-.004-.003a1.265 1.265 0 00-.731-.348l-.006-.001a.616.616 0 00-.536.233l-.001.001a.49.49 0 00-.131.39v-.002c.013.144.06.283.137.406.08.131.194.303.349.509.153.194.29.401.411.617.091.154.148.338.154.535v.002a.84.84 0 01-.223.571 1.02 1.02 0 01-.473.324l-.007.002a1.093 1.093 0 01-.642-.002l.008.002a2.115 2.115 0 01-.734-.414l.003.002a2.626 2.626 0 01-.565-.695l-.007-.013zm5.748.834l-.806-1.143.297-.211 1.857 2.651-.297.211-.806-1.143-2.983 2.086-.24-.349 2.977-2.103zm-1.28 4.697c.107-.357.306-.659.569-.89l.002-.002c.256-.23.573-.396.924-.472l.013-.002a2.086 2.086 0 011.089.044l-.015-.004c.348.117.642.314.873.57l.002.002c.238.272.409.609.483.981l.002.014a2.21 2.21 0 01-.003 1.118l.004-.015a1.975 1.975 0 01-.569.89l-.002.002a2.111 2.111 0 01-2.055.441l.015.004a1.912 1.912 0 01-.872-.569l-.002-.002a2.137 2.137 0 01-.483-.975l-.002-.014a2.187 2.187 0 01.033-1.136l-.004.016zM36 14.611a1.575 1.575 0 001.207.533c.446 0 .854-.165 1.166-.438l-.002.002c.211-.194.367-.44.451-.714a1.835 1.835 0 00-.374-1.683l.002.003a1.63 1.63 0 00-.726-.46l-.012-.003a1.697 1.697 0 00-.892.003l.012-.003c-.303.06-.568.199-.778.395l.001-.001a1.594 1.594 0 00-.448.709l-.003.011a1.705 1.705 0 00.003.898l-.003-.012c.067.296.205.553.395.761l-.001-.001zm-1.183 4.818l1.48-.571c0-.103.034-.206.063-.314l.28-1.034-1.211-.314.109-.406 3.863 1.034-.389 1.446c-.092.435-.33.803-.659 1.06l-.004.003a1.226 1.226 0 01-1.094.157l.009.003a1.242 1.242 0 01-.977-1.205l-1.577.571.109-.429zm1.914.16a1.03 1.03 0 001.439.38l-.004.003c.246-.199.421-.478.484-.797l.001-.009.274-1.029-1.937-.52-.274 1.029a1.366 1.366 0 00.02.952l-.003-.009zm-3.965 3.52l-.291-.223 1.714-2.257 3.189 2.417-1.657 2.189-.291-.223 1.4-1.846-1.143-.863-1.251 1.651-.286-.217 1.28-1.651-1.183-.897-1.48 1.92zm-1.337 4.554l-.817.046v-.274l.817-.006-.44-.68.223-.143.434.686.354-.766.246.131-.389.72.817-.046v.28h-.829l.44.68-.223.143-.434-.686-.377.743-.24-.137.417-.691zM24 27.206l.691.383a1.781 1.781 0 011.131-.9l.012-.003a1.77 1.77 0 01.711-.074l-.007-.001c.216.017.411.092.575.208l-.003-.002a.894.894 0 01.32.457c.069.226.057.469-.034.686-.151.307-.342.57-.571.794.189.101.363.226.52.371a.983.983 0 01.234.394.758.758 0 01-.15.67l.001-.001a1.1 1.1 0 01-.632.438l-.008.002a.996.996 0 01-.709 0 .716.716 0 01-.41-.481l-.001-.005a.78.78 0 01.042-.576l-.002.005a2.76 2.76 0 01.509-.703l-1.377-.766a2.7 2.7 0 00-.034.817h-.349a2.73 2.73 0 01.119-1.014l-.005.019-.72-.4.149-.32zm.994.571l1.514.84c.194-.186.357-.403.479-.644l.006-.014a.723.723 0 000-.514.618.618 0 00-.396-.427l-.004-.001a1.123 1.123 0 00-.74.003l.008-.002a1.376 1.376 0 00-.888.735l-.004.008.023.017zm2.149 2.286a.509.509 0 00.045-.427l.001.004a.703.703 0 00-.183-.297 2.479 2.479 0 00-.46-.308l-.014-.006a2.999 2.999 0 00-.444.559l-.007.013a.566.566 0 00-.045.426l-.001-.004a.483.483 0 00.249.302l.003.001a.637.637 0 00.451 0 .68.68 0 00.381-.266l.001-.002.023.006zm-10.109 1.548l.08-4h.406l-.063 3.2 1.623-2.663h.2l1.52 2.709.057-3.183h.406l-.074 4h-.349l-1.68-2.989-1.777 2.931-.349-.006zm-1.988-4.182a1.943 1.943 0 01.516 1.991l.004-.014c-.1.367-.289.682-.543.931a1.91 1.91 0 01-.907.5l-.013.003a2.189 2.189 0 01-1.124-.039l.016.004a2.15 2.15 0 01-.961-.521l.001.001a1.918 1.918 0 01-.528-.889l-.003-.013a2.1 2.1 0 01.572-2.011c.242-.242.548-.421.889-.511l.014-.003a2.202 2.202 0 011.118.038l-.016-.004c.378.098.704.285.966.538l-.001-.001zm-1.949-.2a1.523 1.523 0 00-.737.411 1.652 1.652 0 00-.432.748l-.003.012c-.08.286-.08.589 0 .874.067.278.212.531.417.731.209.204.469.357.759.437l.012.003a1.796 1.796 0 00.898-.003l-.012.003a1.63 1.63 0 00.743-.411 1.68 1.68 0 00.432-.748l.003-.012a1.645 1.645 0 00-.003-.892l.003.012a1.613 1.613 0 00-.423-.731 1.718 1.718 0 00-.765-.432l-.012-.003a1.645 1.645 0 00-.892.003l.012-.003zm-4.326-2.658l.154 1.571c.098.042.194.09.286.143l.931.537.629-1.109.371.211-2 3.446-1.303-.749a1.826 1.826 0 01-.853-.903l-.005-.012a1.253 1.253 0 01.128-1.091l-.003.005c.133-.25.343-.451.6-.571a1.299 1.299 0 01.832-.061l-.009-.002-.166-1.68.406.263zm-.651 1.806a1.033 1.033 0 00-.771.871v.005a1.034 1.034 0 00.036.417l-.002-.007c.134.296.366.536.657.68l.92.531 1-1.714-.92-.531a1.401 1.401 0 00-.923-.28h.004v.029zm-2.731-4.486l.257-.257 1.971 2.029-2.857 2.789-1.903-1.966.263-.257 1.617 1.663.977-.989-1.417-1.474.274-.263 1.446 1.486 1.063-1.034-1.691-1.726zm-4.246-2.245l.137-.789.269.04-.154.811.76-.28.091.251-.771.263.634.537-.183.206-.611-.571-.143.811-.274-.051.16-.811-.766.274-.086-.223.766-.269-.634-.531.189-.206.617.537z"/></symbol></defs></svg>